# xmcd CD database file
#
# Track frame offsets:
#	150
#	18545
#	54191
#	80979
#	96978
#	115710
#	138370
#	173195
#	206129
#	237586
#	249306
#
# Disc length: 3579 seconds
#
# Revision: 1
# Processed by: cddbd v1.5.2PL0 Copyright (c) Steve Scherf et al.
# Submitted via: CDex 1.51
#
DISCID=970df90b
DTITLE=Terry Oldfield - Sacred Touch: Music For Massage
DYEAR=2009
DGENRE=New Age
TTITLE0=Awakening Earth
TTITLE1=Expanding
TTITLE2=Ascent
TTITLE3=Ocean Deep
TTITLE4=Tender Touch
TTITLE5=Forest Magic
TTITLE6=Spiral Waves
TTITLE7=Drifting Moon
TTITLE8=Wolf Song
TTITLE9=Deep Peace
TTITLE10=Shores Of Longing
EXTD=YEAR: 2009
EXTT0=
EXTT1=
EXTT2=
EXTT3=
EXTT4=
EXTT5=
EXTT6=
EXTT7=
EXTT8=
EXTT9=
EXTT10=
PLAYORDER=
